<?xml version="1.0" encoding="UTF-8"?>
<!DOCTYPE svg PUBLIC "-//W3C//DTD SVG 1.1//EN" "http://www.w3.org/Graphics/SVG/1.1/DTD/svg11.dtd">
<!-- Creator: CorelDRAW X7 -->
<svg xmlns="http://www.w3.org/2000/svg" xml:space="preserve" width="0.666661in" height="0.666661in" version="1.1" style="shape-rendering:geometricPrecision; text-rendering:geometricPrecision; image-rendering:optimizeQuality; fill-rule:evenodd; clip-rule:evenodd"
viewBox="0 0 667 667"
 xmlns:xlink="http://www.w3.org/1999/xlink">
 <defs>
  <style type="text/css">
   <![CDATA[
    .str0 {stroke:black;stroke-width:6.94488}
    .fil0 {fill:black}
    .fil1 {fill:#030104}
   ]]>
  </style>
 </defs>
 <g id="Layer_x0020_1">
  <metadata id="CorelCorpID_0Corel-Layer"/>
  <path class="fil0" d="M17504 -6460l0 -343c0,-145 118,-262 262,-262l3004 0c145,0 263,117 262,261l0 3005c0,145 -117,262 -262,262l-343 0c-147,0 -265,-122 -262,-268l-95 -1284 -1884 1884c-103,103 -268,103 -371,0l-643 -642c-103,-104 -103,-269 0,-372l1890 -1889 -1289 -90c-148,4 -269,-114 -269,-262l0 0 0 0z"/>
  <path class="fil0" d="M-1191 10150l201 195c84,83 84,216 0,298l-1752 1708c-85,83 -222,83 -306,0l-1752 -1708c-85,-83 -85,-216 0,-298l200 -195c86,-84 225,-82 309,4l804 675 0 -2142c0,-117 97,-211 217,-211l750 0c120,0 216,94 216,211l0 2148 804 -681c84,-87 224,-88 309,-4l0 0z"/>
  <path class="fil0" d="M17372 10517l0 343c0,145 -118,262 -262,262l-3004 0c-145,0 -263,-117 -262,-261l0 -3005c0,-145 117,-262 262,-262l343 0c147,0 265,122 262,268l95 1284 1884 -1884c103,-103 268,-103 371,0l643 642c103,104 103,269 0,372l-1890 1889 1289 90c148,-4 269,114 269,262l0 0 0 0z"/>
  <path class="fil0" d="M-11532 6802l343 0c145,0 262,118 262,262l0 3004c0,145 -117,263 -261,262l-3005 0c-145,0 -262,-117 -262,-262l0 -343c0,-147 122,-265 268,-262l1284 -95 -1884 -1884c-103,-103 -103,-268 0,-371l642 -643c104,-103 269,-103 372,0l1889 1890 90 -1289c-4,-148 114,-269 262,-269l0 0 0 0z"/>
  <path class="fil0" d="M8982 8691l-195 201c-82,84 -216,84 -298,0l-1708 -1752c-82,-85 -82,-222 0,-306l1708 -1753c83,-84 216,-84 298,0l195 201c84,85 82,225 -3,309l-676 804 2142 0c117,0 211,97 211,217l0 749c0,121 -94,217 -211,217l-2148 0 682 804c86,84 87,224 3,309l0 0z"/>
  <path class="fil0" d="M-13857 532l195 -201c83,-84 216,-84 298,0l1708 1752c83,85 83,222 0,306l-1708 1753c-82,84 -216,84 -298,0l-195 -201c-83,-85 -81,-225 4,-309l675 -804 -2142 0c-117,0 -211,-96 -211,-217l0 -749c0,-120 94,-217 211,-217l2149 0 -682 -804c-86,-84 -88,-224 -4,-309l0 0z"/>
  <path class="fil0" d="M564 69l58 0c25,0 45,20 44,45l1 508c0,25 -20,45 -45,45l-508 0c-25,0 -45,-20 -45,-45l0 -58c0,-25 21,-45 46,-44l217 -16 -319 -319c-17,-18 -17,-46 0,-63l109 -109c17,-17 45,-17 63,0l319 320 16 -218c-1,-25 19,-46 44,-46l0 0 0 0z"/>
  <path class="fil0" d="M-11822 -6412l344 0c145,0 262,118 261,262l1 3004c0,145 -117,263 -262,262l-3004 0c-145,0 -263,-117 -262,-262l0 -343c0,-147 121,-265 268,-262l1283 -95 -1883 -1884c-103,-103 -103,-268 0,-371l642 -643c103,-103 268,-103 371,0l1889 1890 90 -1289c-4,-148 115,-269 262,-269l0 0 0 0z"/>
  <path class="fil0 str0" d="M-11728 -10967l1919 0c557,0 1009,452 1009,1009l0 1919c0,557 -452,1009 -1009,1009l-1919 0c-557,0 -1009,-452 -1009,-1009l0 -1919c0,-557 452,-1009 1009,-1009z"/>
  <g id="_2921501432432">
   <path class="fil0" d="M14926 1219l344 0c145,0 262,118 261,262l1 3004c0,145 -117,263 -262,262l-3004 0c-145,0 -263,-117 -262,-262l0 -343c0,-147 121,-265 268,-262l1283 -95 -1883 -1884c-103,-103 -103,-268 0,-371l642 -643c103,-103 268,-103 371,0l1889 1890 90 -1289c-4,-148 115,-269 262,-269l0 0 0 0z"/>
   <path class="fil0 str0" d="M15020 -3336l1919 0c557,0 1009,452 1009,1009l0 1919c0,557 -452,1009 -1009,1009l-1919 0c-557,0 -1009,-452 -1009,-1009l0 -1919c0,-557 452,-1009 1009,-1009z"/>
   <g id="_2398609363824">
    <g>
     <g id="c187_arrow">
      <path id="__x003c_Group_x003e__5_" class="fil1" d="M23365 2802c0,2 0,3 0,3 0,1 0,1 0,2 0,0 0,0 0,0l0 0c0,1 0,1 0,2 0,0 0,0 0,0 0,0 0,0 0,1 0,4 0,5 0,9 0,509 -202,1005 -557,1371l409 402c19,20 25,50 15,74 -11,25 -35,42 -63,42l-1328 0c-37,0 -67,-30 -67,-67l0 -1312c0,-1 0,-2 0,-3 0,-37 30,-67 67,-67 25,0 47,13 59,33l402 398c228,-236 353,-543 353,-881 -5,-688 -569,-1249 -1269,-1249 -688,5 -1247,569 -1247,1269l-711 -2 0 -10c0,-1078 877,-1961 1968,-1968 1077,0 1959,875 1969,1953l0 0z"/>
     </g>
    </g>
    <g>
    </g>
    <g>
    </g>
    <g>
    </g>
    <g>
    </g>
    <g>
    </g>
    <g>
    </g>
    <g>
    </g>
    <g>
    </g>
    <g>
    </g>
    <g>
    </g>
    <g>
    </g>
    <g>
    </g>
    <g>
    </g>
    <g>
    </g>
    <g>
    </g>
   </g>
  </g>
  <path class="fil0" d="M10533 -1871l-343 0c-145,0 -262,-118 -262,-262l0 -3004c0,-145 117,-263 261,-262l3005 0c145,0 262,117 262,262l0 343c0,147 -122,265 -268,262l-1284 95 1884 1884c103,103 103,268 0,371l-642 643c-104,103 -269,103 -372,0l-1889 -1890 -90 1289c4,148 -114,269 -262,269l0 0 0 0z"/>
 </g>
</svg>
