<?xml version="1.0" encoding="UTF-8"?>
<!DOCTYPE svg PUBLIC "-//W3C//DTD SVG 1.1//EN" "http://www.w3.org/Graphics/SVG/1.1/DTD/svg11.dtd">
<!-- Creator: CorelDRAW X7 -->
<svg xmlns="http://www.w3.org/2000/svg" xml:space="preserve" width="0.666661in" height="0.666661in" version="1.1" style="shape-rendering:geometricPrecision; text-rendering:geometricPrecision; image-rendering:optimizeQuality; fill-rule:evenodd; clip-rule:evenodd"
viewBox="0 0 667 667"
 xmlns:xlink="http://www.w3.org/1999/xlink">
 <defs>
  <style type="text/css">
   <![CDATA[
    .str0 {stroke:black;stroke-width:6.94488}
    .fil0 {fill:black}
   ]]>
  </style>
 </defs>
 <g id="Layer_x0020_1">
  <metadata id="CorelCorpID_0Corel-Layer"/>
  <path class="fil0" d="M17504 -6460l0 -343c0,-145 118,-262 262,-262l3004 0c145,0 263,117 262,261l0 3005c0,145 -117,262 -262,262l-343 0c-147,0 -265,-122 -262,-268l-95 -1284 -1884 1884c-103,103 -268,103 -371,0l-643 -642c-103,-104 -103,-269 0,-372l1890 -1889 -1289 -90c-148,4 -269,-114 -269,-262l0 0 0 0z"/>
  <path class="fil0" d="M-11532 6802l343 0c145,0 262,118 262,262l0 3004c0,145 -117,263 -261,262l-3005 0c-145,0 -262,-117 -262,-262l0 -343c0,-147 122,-265 268,-262l1284 -95 -1884 -1884c-103,-103 -103,-268 0,-371l642 -643c104,-103 269,-103 372,0l1889 1890 90 -1289c-4,-148 114,-269 262,-269l0 0 0 0z"/>
  <path class="fil0" d="M383 622l-33 34c-14,14 -36,14 -50,0l-290 -297c-13,-14 -13,-37 0,-51l290 -297c14,-15 36,-15 50,0l33 34c14,14 14,38 0,52l-115 136 363 0c20,0 36,17 36,37l0 127c0,20 -16,36 -36,36l-364 0 116 137c14,14 14,38 0,52l0 0z"/>
  <path class="fil0" d="M-14363 -3809l344 0c145,0 262,118 261,262l1 3004c0,145 -117,263 -262,262l-3004 0c-145,0 -263,-117 -262,-262l0 -343c0,-147 121,-265 268,-262l1283 -95 -1883 -1884c-103,-103 -103,-268 0,-371l642 -643c103,-103 268,-103 371,0l1889 1890 90 -1289c-4,-148 115,-269 262,-269l0 0 0 0z"/>
  <path class="fil0 str0" d="M-14269 -8364l1919 0c557,0 1009,452 1009,1009l0 1919c0,558 -452,1009 -1009,1009l-1919 0c-557,0 -1009,-451 -1009,-1009l0 -1919c0,-557 452,-1009 1009,-1009z"/>
  <path class="fil0" d="M10533 -1871l-343 0c-145,0 -262,-118 -262,-262l0 -3004c0,-145 117,-263 261,-262l3005 0c145,0 262,117 262,262l0 343c0,147 -122,265 -268,262l-1284 95 1884 1884c103,103 103,268 0,371l-642 643c-104,103 -269,103 -372,0l-1889 -1890 -90 1289c4,148 -114,269 -262,269l0 0 0 0z"/>
 </g>
</svg>
